<?xml version="1.0" encoding="utf-8"?>
<!-- Generator: Adobe Illustrator 16.0.0, SVG Export Plug-In . SVG Version: 6.00 Build 0)  -->
<!DOCTYPE svg PUBLIC "-//W3C//DTD SVG 1.1//EN" "http://www.w3.org/Graphics/SVG/1.1/DTD/svg11.dtd">
<svg version="1.1" id="Capa_1" xmlns="http://www.w3.org/2000/svg" xmlns:xlink="http://www.w3.org/1999/xlink" x="0px" y="0px"
	 width="256px" height="256px" viewBox="0 0 256 256" enable-background="new 0 0 256 256" xml:space="preserve">
<g opacity="0.05">
	<g>
		<g>
			<defs>
				<rect id="SVGID_1_" x="8.934" y="9.484" width="238.002" height="238.033"/>
			</defs>
			<clipPath id="SVGID_2_">
				<use xlink:href="#SVGID_1_"  overflow="visible"/>
			</clipPath>
			<path clip-path="url(#SVGID_2_)" fill="#0387EA" d="M246.936,128.501c0,65.724-53.281,119.002-119.001,119.002
				c-65.722,0-119-53.279-119-119.002S62.212,9.5,127.934,9.5C193.654,9.5,246.936,62.777,246.936,128.501"/>
		</g>
	</g>
</g>
<circle fill="none" stroke="#0387EA" stroke-width="9" stroke-miterlimit="10" cx="127.934" cy="128.5" r="119"/>
<path fill="#0387EA" d="M200.8,121.101v1.418c-0.556,0.646-1.07,1.334-1.678,1.938c-6.743,6.761-13.502,13.498-20.224,20.281
	c-0.408,0.413-0.71,1.137-0.715,1.717c-0.041,11.983-0.058,23.968-0.008,35.951c0.008,1.546-0.337,2.751-1.679,3.578H80.001V67.075
	c0.629-0.63,1.258-1.262,1.887-1.89h71.962c0.432,0.379,0.936,0.706,1.297,1.149c7.409,9.055,14.822,18.109,22.181,27.209
	c0.491,0.609,0.778,1.561,0.786,2.359c0.062,6.088,0.034,12.175,0.034,18.265v1.622c2.442-2.437,4.646-4.659,6.869-6.862
	c1.317-1.303,2.743-1.297,4.03-0.01c3.495,3.503,6.992,7.002,10.474,10.526C200.008,119.938,200.377,120.545,200.8,121.101
	 M173.133,97.918h-1.593c-5.899,0-11.798,0-17.694,0c-2.586,0-3.36-0.775-3.36-3.389c-0.008-7.667-0.019-15.334,0.017-23
	c0.007-0.981-0.178-1.357-1.276-1.357c-20.995,0.034-41.991,0.03-62.985,0.002c-0.991,0-1.246,0.296-1.246,1.266
	c0.023,36.09,0.023,72.186,0,108.28c0,0.959,0.243,1.267,1.243,1.264c28.504-0.022,57.01-0.026,85.517-0.004
	c1.036,0,1.406-0.209,1.402-1.345c-0.052-9.241-0.027-18.479-0.03-27.717c0-0.372-0.035-0.745-0.069-1.315
	c-0.422,0.395-0.717,0.643-0.981,0.912c-2.948,2.944-5.881,5.908-8.858,8.825c-0.517,0.51-1.159,0.966-1.829,1.227
	c-5.714,2.19-11.453,4.326-17.185,6.489c-1.109,0.417-2.162,0.461-3.055-0.441c-0.884-0.89-0.892-1.924-0.46-3.052
	c2.143-5.646,4.253-11.313,6.429-16.951c0.298-0.78,0.792-1.546,1.379-2.138c7.903-7.948,15.829-15.873,23.771-23.773
	c0.643-0.64,0.889-1.276,0.887-2.166c-0.031-6.291-0.02-12.581-0.02-18.871L173.133,97.918L173.133,97.918z M187.146,114.333
	c-11.159,11.161-22.315,22.322-33.316,33.318c2.396,2.43,4.896,4.957,7.234,7.33c11.109-11.103,22.268-22.255,33.391-33.368
	C192.044,119.214,189.541,116.72,187.146,114.333 M170.253,92.787c-4.962-6.059-9.752-11.916-14.669-17.92v17.92H170.253z
	 M156.394,158.079c-1.914-1.931-3.776-3.805-5.692-5.737c-1.113,2.948-2.238,5.951-3.456,9.184
	C150.495,160.298,153.479,159.174,156.394,158.079"/>
<path fill="#0387EA" d="M125.304,113.023H98.542c-0.199,0-0.393,0.007-0.59,0c-1.689-0.059-2.823-1.076-2.823-2.537
	c0-1.473,1.114-2.522,2.813-2.533c4.915-0.024,9.827-0.014,14.736-0.01c13.129,0,26.253,0,39.381,0.003c0.197,0,0.391-0.003,0.589,0
	c1.696,0.052,2.822,1.057,2.822,2.53c0.007,1.463-1.126,2.53-2.815,2.533c-5.774,0.024-11.55,0.014-17.329,0.014
	C131.985,113.023,128.644,113.023,125.304,113.023"/>
<path fill="#0387EA" d="M125.423,123.044c9,0,18-0.002,27,0.004c2.289,0.003,3.653,1.747,2.808,3.563
	c-0.553,1.197-1.59,1.516-2.816,1.513c-5.861-0.009-11.715,0-17.57,0c-12.025,0-24.053-0.004-36.08-0.007
	c-0.275,0-0.551,0.007-0.825,0c-1.676-0.049-2.818-1.084-2.814-2.543c0.007-1.464,1.141-2.521,2.826-2.524
	c6.448-0.014,12.894-0.004,19.337-0.004C119.999,123.044,122.713,123.044,125.423,123.044"/>
<path fill="#0387EA" d="M111.51,143.217c-4.513,0-9.03,0.021-13.543-0.012c-2.214-0.014-3.503-1.965-2.518-3.738
	c0.586-1.053,1.56-1.331,2.693-1.326c6.047,0.01,12.094,0.002,18.137,0c2.829,0,5.656-0.005,8.479,0.002
	c1.853,0.004,3.038,1.021,3.013,2.566c-0.027,1.512-1.157,2.502-2.953,2.508c-4.437,0.018-8.873,0.003-13.311,0.003v-0.003H111.51z"
	/>
<path fill="#0387EA" d="M111.36,158.316c-4.443,0-8.887-0.002-13.331,0c-1.095,0-2.018-0.316-2.577-1.329
	c-0.475-0.866-0.437-1.736,0.098-2.571c0.628-0.976,1.589-1.176,2.666-1.172c7.277,0.006,14.549,0,21.826,0
	c1.492,0,2.987-0.008,4.483,0c2.082,0.009,3.265,0.947,3.244,2.57c-0.02,1.574-1.186,2.5-3.196,2.502
	C120.167,158.326,115.764,158.316,111.36,158.316"/>
</svg>
